<svg width="24" height="30" viewBox="0 0 24 30" fill="none" xmlns="http://www.w3.org/2000/svg">
<path d="M7.70871 25.5523C6.35807 24.3134 5.96378 21.7103 6.52649 19.8245C7.50221 21.0135 8.85414 21.3901 10.2545 21.6027C12.4163 21.9308 14.5394 21.8081 16.5476 20.8166C16.7773 20.7031 16.9896 20.5522 17.2406 20.3993C17.4291 20.9478 17.4781 21.5017 17.4123 22.0653C17.2523 23.4381 16.5715 24.4985 15.4886 25.3023C15.0556 25.6238 14.5974 25.9112 14.1502 26.2144C12.7764 27.1462 12.4047 28.2387 12.9209 29.828C12.9332 29.8667 12.9442 29.9054 12.9719 29.9999C12.2704 29.6849 11.7581 29.2263 11.3677 28.6232C10.9553 27.9867 10.7591 27.2826 10.7488 26.5208C10.7436 26.1501 10.7436 25.776 10.6939 25.4106C10.5726 24.5195 10.1558 24.1205 9.37039 24.0975C8.56439 24.0739 7.92682 24.5739 7.75775 25.3613C7.74485 25.4217 7.72613 25.4814 7.70742 25.5516L7.70871 25.5523Z" fill="#3B3C3D"/>
<path d="M0 19.5103C0 19.5103 3.99947 17.5552 8.01012 17.5552L11.034 8.16461C11.1472 7.71047 11.4778 7.40185 11.8509 7.40185C12.2241 7.40185 12.5547 7.71047 12.6679 8.16461L15.6918 17.5552C20.4418 17.5552 23.7019 19.5103 23.7019 19.5103C23.7019 19.5103 16.9085 0.939907 16.8952 0.902648C16.7002 0.353607 16.3711 0 15.9273 0H7.77531C7.33154 0 7.01567 0.353607 6.80741 0.902648C6.79274 0.939204 0 19.5103 0 19.5103Z" fill="#3B3C3D"/>
</svg>
