<svg width="30" height="30" viewBox="0 0 30 30" fill="none" xmlns="http://www.w3.org/2000/svg">
<path d="M14.0716 0.481812C6.43263 0.481812 0.23999 6.67365 0.23999 14.3134C0.23999 21.9515 6.43263 28.1451 14.0716 28.1451C21.7104 28.1451 27.904 21.9515 27.904 14.3134C27.904 6.67365 21.7104 0.481812 14.0716 0.481812ZM14.0716 26.3009C7.45124 26.3009 2.08422 20.934 2.08422 14.3134C2.08422 7.69289 7.45124 2.32601 14.0716 2.32601C20.6928 2.32601 26.0598 7.69289 26.0598 14.3134C26.0598 20.934 20.6928 26.3009 14.0716 26.3009Z" fill="#3B3C3D"/>
<path d="M16.5127 18.3496C15.9004 18.8593 15.1548 19.1132 14.2751 19.1132C13.5511 19.1132 12.8775 18.9241 12.2544 18.5531C11.6348 18.1802 11.1774 17.6165 10.8821 16.8638C10.5884 16.1092 10.4408 15.2284 10.4408 14.2179C10.4408 13.4346 10.5651 12.6727 10.8136 11.9361C11.0621 11.1978 11.4908 10.6106 12.1068 10.1711C12.719 9.73529 13.4827 9.51737 14.3976 9.51737C15.1909 9.51737 15.8499 9.71373 16.3741 10.1063C16.8982 10.5026 17.298 11.1328 17.5736 11.9955L19.1205 11.63C18.8018 10.5349 18.2399 9.68488 17.4277 9.07978C16.6173 8.47465 15.6176 8.16852 14.4282 8.16852C13.38 8.16852 12.42 8.40972 11.5484 8.88888C10.6749 9.36615 10.0032 10.0666 9.52953 10.9869C9.05586 11.909 8.81982 12.9878 8.81982 14.227C8.81982 15.3598 9.02787 16.4224 9.44843 17.4094C9.86629 18.4 10.4787 19.1546 11.28 19.675C12.0815 20.1973 13.1224 20.4566 14.4048 20.4566C15.6411 20.4566 16.6893 20.1181 17.5448 19.441C18.4021 18.762 18.9946 17.7768 19.3242 16.4855L17.7518 16.0892C17.5357 17.0889 17.1216 17.8435 16.5127 18.3496Z" fill="#3B3C3D"/>
</svg>
