<svg width="30" height="30" viewBox="0 0 30 30" fill="none" xmlns="http://www.w3.org/2000/svg">
<path d="M21.2079 11.5005C21.2079 11.5005 20.7256 7.38584 16.2661 7.27088C11.8053 7.15718 9.51624 10.3572 9.51624 14.9304C9.51624 19.5036 12.0477 23.1621 16.386 23.1621C20.7256 23.1621 21.2091 18.5889 21.2091 18.5889L29.5258 19.0462C29.5258 19.0462 30.0144 23.1771 26.5345 26.3284C23.0534 29.4796 18.7826 29.9944 15.7988 29.9732C12.8149 29.9507 8.67907 30.0156 4.67815 26.2634C0.680981 22.5136 0 18.8688 0 15.289C0 11.7079 0.75845 6.966 5.51532 3.36867C8.74655 0.927139 12.024 0.0262452 15.3015 0.0262452C28.9836 0.0249957 29.9007 11.5804 29.9007 11.5804L21.2079 11.5005Z" fill="#3B3C3D"/>
</svg>
