<svg width="25" height="25" viewBox="0 0 25 25" fill="none" xmlns="http://www.w3.org/2000/svg">
<path d="M0.78125 20.3125C0.78125 21.1413 1.11049 21.9362 1.69654 22.5222C2.28259 23.1083 3.07745 23.4375 3.90625 23.4375H21.0938C21.9226 23.4375 22.7174 23.1083 23.3035 22.5222C23.8895 21.9362 24.2188 21.1413 24.2188 20.3125V8.59375H0.78125V20.3125ZM17.7188 11.4688C18.0769 11.4703 18.4265 11.5779 18.7236 11.778C19.0206 11.9781 19.2517 12.2617 19.3877 12.593C19.5237 12.9244 19.5585 13.2885 19.4877 13.6396C19.4168 13.9907 19.2436 14.3129 18.9898 14.5656C18.736 14.8183 18.4131 14.9902 18.0617 15.0595C17.7103 15.1288 17.3463 15.0924 17.0155 14.955C16.6848 14.8176 16.4022 14.5853 16.2034 14.2874C16.0045 13.9895 15.8984 13.6394 15.8984 13.2812C15.8984 13.0426 15.9456 12.8062 16.0371 12.5858C16.1287 12.3654 16.2629 12.1653 16.4321 11.9968C16.6012 11.8284 16.8019 11.6951 17.0227 11.6045C17.2435 11.5138 17.4801 11.4677 17.7188 11.4688ZM17.7188 16.6875C18.0772 16.6875 18.4277 16.7938 18.7257 16.993C19.0238 17.1921 19.2561 17.4752 19.3933 17.8064C19.5305 18.1376 19.5664 18.502 19.4964 18.8536C19.4265 19.2052 19.2539 19.5281 19.0004 19.7816C18.7469 20.0351 18.4239 20.2077 18.0724 20.2777C17.7208 20.3476 17.3563 20.3117 17.0251 20.1745C16.6939 20.0373 16.4109 19.805 16.2117 19.507C16.0126 19.2089 15.9063 18.8585 15.9062 18.5C15.9052 18.2613 15.9513 18.0248 16.042 17.804C16.1326 17.5832 16.2659 17.3825 16.4343 17.2133C16.6028 17.0442 16.8029 16.91 17.0233 16.8184C17.2437 16.7268 17.4801 16.6797 17.7188 16.6797V16.6875ZM12.5 11.4688C12.8585 11.4688 13.2089 11.5751 13.507 11.7742C13.805 11.9734 14.0373 12.2564 14.1745 12.5876C14.3117 12.9188 14.3476 13.2833 14.2777 13.6349C14.2077 13.9864 14.0351 14.3094 13.7816 14.5629C13.5281 14.8164 13.2052 14.989 12.8536 15.0589C12.502 15.1289 12.1376 15.093 11.8064 14.9558C11.4752 14.8186 11.1921 14.5863 10.993 14.2882C10.7938 13.9902 10.6875 13.6397 10.6875 13.2812C10.6875 13.0432 10.7344 12.8075 10.8255 12.5876C10.9166 12.3677 11.0501 12.1679 11.2184 11.9996C11.3867 11.8313 11.5865 11.6978 11.8064 11.6067C12.0263 11.5156 12.262 11.4688 12.5 11.4688ZM12.5 16.6875C12.8585 16.6875 13.2089 16.7938 13.507 16.993C13.805 17.1921 14.0373 17.4752 14.1745 17.8064C14.3117 18.1376 14.3476 18.502 14.2777 18.8536C14.2077 19.2052 14.0351 19.5281 13.7816 19.7816C13.5281 20.0351 13.2052 20.2077 12.8536 20.2777C12.502 20.3476 12.1376 20.3117 11.8064 20.1745C11.4752 20.0373 11.1921 19.805 10.993 19.507C10.7938 19.2089 10.6875 18.8585 10.6875 18.5C10.6865 18.2613 10.7326 18.0248 10.8232 17.804C10.9138 17.5832 11.0472 17.3825 11.2156 17.2133C11.384 17.0442 11.5842 16.91 11.8046 16.8184C12.025 16.7268 12.2613 16.6797 12.5 16.6797V16.6875ZM7.28125 11.4688C7.63973 11.4688 7.99016 11.5751 8.28822 11.7742C8.58629 11.9734 8.8186 12.2564 8.95578 12.5876C9.09297 12.9188 9.12886 13.2833 9.05892 13.6349C8.98899 13.9864 8.81636 14.3094 8.56288 14.5629C8.3094 14.8164 7.98644 14.989 7.63485 15.0589C7.28326 15.1289 6.91883 15.093 6.58764 14.9558C6.25645 14.8186 5.97337 14.5863 5.77421 14.2882C5.57505 13.9902 5.46875 13.6397 5.46875 13.2812C5.46875 13.0432 5.51563 12.8075 5.60672 12.5876C5.6978 12.3677 5.83131 12.1679 5.99962 11.9996C6.16793 11.8313 6.36773 11.6978 6.58764 11.6067C6.80754 11.5156 7.04323 11.4688 7.28125 11.4688ZM7.28125 16.6875C7.63973 16.6875 7.99016 16.7938 8.28822 16.993C8.58629 17.1921 8.8186 17.4752 8.95578 17.8064C9.09297 18.1376 9.12886 18.502 9.05892 18.8536C8.98899 19.2052 8.81636 19.5281 8.56288 19.7816C8.3094 20.0351 7.98644 20.2077 7.63485 20.2777C7.28326 20.3476 6.91883 20.3117 6.58764 20.1745C6.25645 20.0373 5.97337 19.805 5.77421 19.507C5.57505 19.2089 5.46875 18.8585 5.46875 18.5C5.46772 18.2613 5.51384 18.0248 5.60447 17.804C5.6951 17.5832 5.82844 17.3825 5.99685 17.2133C6.16526 17.0442 6.36541 16.91 6.58583 16.8184C6.80624 16.7268 7.04257 16.6797 7.28125 16.6797V16.6875ZM21.0938 1.5625H3.90625C3.07745 1.5625 2.28259 1.89174 1.69654 2.47779C1.11049 3.06384 0.78125 3.8587 0.78125 4.6875V7.03125H24.2188V4.6875C24.2188 3.8587 23.8895 3.06384 23.3035 2.47779C22.7174 1.89174 21.9226 1.5625 21.0938 1.5625Z" fill="#3B3C3D"/>
</svg>
