<svg width="30" height="31" viewBox="0 0 30 31" fill="none" xmlns="http://www.w3.org/2000/svg">
<path d="M14.9883 2.73535C7.74316 2.73242 1.875 8.59766 1.875 15.8369C1.875 21.5615 5.5459 26.4277 10.6582 28.2148C11.3467 28.3877 11.2412 27.8984 11.2412 27.5645V25.2939C7.26562 25.7598 7.10449 23.1289 6.83789 22.6895C6.29883 21.7695 5.02441 21.5352 5.40527 21.0957C6.31055 20.6299 7.2334 21.2129 8.30273 22.792C9.07617 23.9375 10.585 23.7441 11.3496 23.5537C11.5166 22.8652 11.874 22.25 12.3662 21.7725C8.24707 21.0342 6.53027 18.5205 6.53027 15.5322C6.53027 14.082 7.00781 12.749 7.94531 11.6738C7.34766 9.90137 8.00098 8.38379 8.08887 8.1582C9.79102 8.00586 11.5605 9.37695 11.6982 9.48535C12.665 9.22461 13.7695 9.08692 15.0059 9.08692C16.248 9.08692 17.3555 9.23047 18.3311 9.49414C18.6621 9.24219 20.3027 8.06445 21.8848 8.20801C21.9697 8.43359 22.6084 9.91602 22.0459 11.665C22.9951 12.7432 23.4785 14.0879 23.4785 15.541C23.4785 18.5352 21.75 21.0518 17.6191 21.7783C18.3076 22.458 18.7354 23.4014 18.7354 24.4443V27.7402C18.7588 28.0039 18.7354 28.2646 19.1748 28.2646C24.3633 26.5156 28.0986 21.6143 28.0986 15.8398C28.0986 8.59766 22.2275 2.73535 14.9883 2.73535Z" fill="#00668C"/>
</svg>
