<svg width="30" height="30" viewBox="0 0 30 30" fill="none" xmlns="http://www.w3.org/2000/svg">
<path d="M5.00001 13.75H25C25.3315 13.75 25.6495 13.8817 25.8839 14.1161C26.1183 14.3505 26.25 14.6685 26.25 15C26.25 15.3315 26.1183 15.6495 25.8839 15.8839C25.6495 16.1183 25.3315 16.25 25 16.25H5.00001C4.66849 16.25 4.35055 16.1183 4.11612 15.8839C3.8817 15.6495 3.75001 15.3315 3.75001 15C3.75001 14.6685 3.8817 14.3505 4.11612 14.1161C4.35055 13.8817 4.66849 13.75 5.00001 13.75ZM5.00001 5H22.5C22.8315 5.00005 23.1494 5.13177 23.3838 5.36618C23.6181 5.6006 23.7498 5.91851 23.7498 6.25C23.7498 6.58149 23.6181 6.8994 23.3838 7.13382C23.1494 7.36823 22.8315 7.49995 22.5 7.5H5.00001C4.83584 7.50003 4.67327 7.46771 4.5216 7.4049C4.36992 7.3421 4.23209 7.25003 4.116 7.13395C3.99991 7.01788 3.90782 6.88007 3.84499 6.7284C3.78216 6.57673 3.74982 6.41417 3.74982 6.25C3.74982 6.08583 3.78216 5.92327 3.84499 5.7716C3.90782 5.61993 3.99991 5.48212 4.116 5.36605C4.23209 5.24997 4.36992 5.1579 4.5216 5.0951C4.67327 5.03229 4.83584 4.99997 5.00001 5ZM5.00001 22.5H20C20.3315 22.5001 20.6494 22.6318 20.8838 22.8662C21.1181 23.1006 21.2498 23.4185 21.2498 23.75C21.2498 24.0815 21.1181 24.3994 20.8838 24.6338C20.6494 24.8682 20.3315 24.9999 20 25H5.00001C4.66852 24.9999 4.35063 24.8682 4.11625 24.6338C3.88187 24.3994 3.7502 24.0815 3.7502 23.75C3.7502 23.4185 3.88187 23.1006 4.11625 22.8662C4.35063 22.6318 4.66852 22.5001 5.00001 22.5Z" fill="#00668C"/>
</svg>
