<?xml version="1.0" standalone="no"?><!DOCTYPE svg PUBLIC "-//W3C//DTD SVG 1.1//EN" "http://www.w3.org/Graphics/SVG/1.1/DTD/svg11.dtd"><svg t="1714725696621" class="icon" viewBox="0 0 1024 1024" version="1.1" xmlns="http://www.w3.org/2000/svg" p-id="5918" xmlns:xlink="http://www.w3.org/1999/xlink" width="200" height="200"><path d="M840.101888 64.064512c16.546816 0 31.97952 3.183616 46.299136 9.545728 14.319616 6.362112 26.891264 14.957568 37.7088 25.777152 10.81856 10.817536 19.408896 23.384064 25.772032 37.70368 6.367232 14.318592 9.545728 29.75232 9.545728 46.299136l0 656.770048c0 16.546816-3.178496 31.97952-9.545728 46.299136-6.363136 14.318592-14.953472 26.891264-25.772032 37.7088-10.817536 10.81856-23.389184 19.408896-37.7088 25.772032-14.318592 6.367232-29.75232 9.545728-46.299136 9.545728L183.330816 959.485952c-16.54784 0-31.980544-3.178496-46.299136-9.545728-14.319616-6.363136-26.886144-14.953472-37.70368-25.772032-10.819584-10.817536-19.41504-23.390208-25.777152-37.7088s-9.545728-29.75232-9.545728-46.299136L64.00512 183.391232c0-16.546816 3.183616-31.980544 9.545728-46.299136 6.362112-14.319616 14.957568-26.886144 25.777152-37.70368 10.817536-10.81856 23.384064-19.414016 37.70368-25.777152 14.318592-6.362112 29.75232-9.545728 46.299136-9.545728L840.101888 64.065536 840.101888 64.064512zM239.65184 865.937408c12.091392 0 23.549952-2.228224 34.367488-6.683648 10.817536-4.452352 20.207616-10.65984 28.164096-18.612224 7.952384-7.957504 14.154752-17.344512 18.6112-28.163072 4.457472-10.81856 6.683648-22.270976 6.683648-34.367488 0-12.091392-2.2272-23.543808-6.683648-34.362368-4.456448-10.81856-10.658816-20.206592-18.6112-28.163072-7.95648-7.957504-17.34656-14.160896-28.164096-18.617344-10.817536-4.451328-22.276096-6.678528-34.367488-6.678528-12.725248 0-24.341504 2.228224-34.842624 6.678528-10.50112 4.456448-19.889152 10.65984-28.164096 18.617344-8.272896 7.95648-14.635008 17.344512-19.09248 28.163072-4.450304 10.817536-6.678528 22.270976-6.678528 34.362368 0 12.096512 2.228224 23.547904 6.678528 34.367488 4.457472 10.817536 10.819584 20.205568 19.09248 28.163072 8.274944 7.952384 17.662976 14.159872 28.164096 18.612224C215.310336 863.709184 226.926592 865.937408 239.65184 865.937408L239.65184 865.937408zM480.21504 841.116672l34.367488 0c9.545728 0 18.92864 0.15872 28.157952 0.480256 9.229312 0.31744 18.93376 0.47616 29.119488 0.47616 10.179584 0 21.63712-0.31744 34.362368-0.956416 0-57.910272-11.134976-112.484352-33.411072-163.715072-22.272-51.23072-52.503552-95.936512-90.689536-134.120448-38.18496-38.183936-82.88768-68.25984-134.120448-90.212352-51.231744-21.952512-105.803776-32.93696-163.714048-32.93696-0.637952 15.275008-0.955392 27.689984-0.955392 37.235712l0 26.7264c0 8.9088 0.15872 17.977344 0.474112 27.208704 0.32256 9.227264 0.48128 20.839424 0.48128 34.840576 40.730624 0 79.071232 7.634944 115.028992 22.909952 35.956736 15.273984 67.304448 36.278272 94.029824 63.003648 26.7264 26.728448 47.889408 58.074112 63.480832 94.029824C472.418304 762.044416 480.21504 800.387072 480.21504 841.116672L480.21504 841.116672zM723.641344 839.209984c22.909952 0 38.18496 0.157696 45.81888 0.475136 7.640064 0.31744 13.364224 0.796672 17.185792 1.430528 3.818496 0.638976 8.749056 0.956416 14.794752 0.956416 6.044672 0 18.93376-0.638976 38.660096-1.910784 0-90.366976-17.180672-175.168512-51.54816-254.40256-34.367488-79.229952-81.14176-148.438016-140.324864-207.627264C589.04064 318.948352 519.672832 272.166912 440.118272 237.806592c-79.546368-34.367488-164.51072-51.554304-254.875648-51.554304-0.641024 15.913984-0.956416 27.3664-0.956416 34.368512l0 15.275008c0 2.545664 0.159744 4.298752 0.474112 5.248 0.318464 0.956416 0.482304 3.183616 0.482304 6.684672 0 3.50208 0.155648 9.228288 0.474112 17.179648 0.318464 7.95648 0.474112 20.530176 0.474112 37.709824 74.463232 0 144.3072 14.001152 209.540096 42.002432 65.23392 28.004352 122.1888 66.348032 170.87488 115.034112 48.687104 48.679936 87.02976 105.64096 115.034112 170.872832C709.639168 695.855104 723.641344 765.386752 723.641344 839.209984L723.641344 839.209984zM723.641344 839.209984" p-id="5919" fill="#00668c"></path></svg>